# xmcd CD database file
#
# Track frame offsets:
#	150
#	19162
#	35019
#	51088
#	70590
#	92027
#	115902
#	134431
#	154768
#	173598
#	189527
#	212859
#
# Disc length: 3107 seconds
#
# Revision: 1
# Processed by: cddbd v1.5PL3 Copyright (c) Steve Scherf et al.
# Submitted via: CDex 1.50
#
DISCID=a30c210c
DTITLE=GRAPEVINE - Another Sky
DYEAR=2002
DGENRE=Rock
TTITLE0=マリーのサウンドトラック
TTITLE1=ドリフト160(改)
TTITLE2=BLUE BACK
TTITLE3=マダカレークッテナイデショー
TTITLE4=それでも
TTITLE5=Colors
TTITLE6=Tinydogs
TTITLE7=Let me in 〜おれがおれが〜
TTITLE8=ナツヒカリ
TTITLE9=Sundown and hightide
TTITLE10=アナザーワールド
TTITLE11=ふたり
EXTD=YEAR: 2002
EXTT0=
EXTT1=
EXTT2=
EXTT3=
EXTT4=
EXTT5=
EXTT6=
EXTT7=
EXTT8=
EXTT9=
EXTT10=
EXTT11=
PLAYORDER=
